%TF.GenerationSoftware,KiCad,Pcbnew,9.0.1*%
%TF.CreationDate,2025-07-13T17:33:39+03:00*%
%TF.ProjectId,nfc_se050_Luna_v0.1.3,6e66635f-7365-4303-9530-5f4c756e615f,rev?*%
%TF.SameCoordinates,Original*%
%TF.FileFunction,Copper,L1,Top*%
%TF.FilePolarity,Positive*%
%FSLAX46Y46*%
G04 Gerber Fmt 4.6, Leading zero omitted, Abs format (unit mm)*
G04 Created by KiCad (PCBNEW 9.0.1) date 2025-07-13 17:33:39*
%MOMM*%
%LPD*%
G01*
G04 APERTURE LIST*
G04 Aperture macros list*
%AMRoundRect*
0 Rectangle with rounded corners*
0 $1 Rounding radius*
0 $2 $3 $4 $5 $6 $7 $8 $9 X,Y pos of 4 corners*
0 Add a 4 corners polygon primitive as box body*
4,1,4,$2,$3,$4,$5,$6,$7,$8,$9,$2,$3,0*
0 Add four circle primitives for the rounded corners*
1,1,$1+$1,$2,$3*
1,1,$1+$1,$4,$5*
1,1,$1+$1,$6,$7*
1,1,$1+$1,$8,$9*
0 Add four rect primitives between the rounded corners*
20,1,$1+$1,$2,$3,$4,$5,0*
20,1,$1+$1,$4,$5,$6,$7,0*
20,1,$1+$1,$6,$7,$8,$9,0*
20,1,$1+$1,$8,$9,$2,$3,0*%
G04 Aperture macros list end*
%TA.AperFunction,SMDPad,CuDef*%
%ADD10R,0.700000X0.200000*%
%TD*%
%TA.AperFunction,SMDPad,CuDef*%
%ADD11R,0.200000X0.700000*%
%TD*%
%TA.AperFunction,SMDPad,CuDef*%
%ADD12R,1.950000X1.950000*%
%TD*%
%TA.AperFunction,SMDPad,CuDef*%
%ADD13RoundRect,0.225000X-0.225000X-0.250000X0.225000X-0.250000X0.225000X0.250000X-0.225000X0.250000X0*%
%TD*%
%TA.AperFunction,ViaPad*%
%ADD14C,0.600000*%
%TD*%
%TA.AperFunction,Conductor*%
%ADD15C,0.400000*%
%TD*%
%TA.AperFunction,Conductor*%
%ADD16C,0.200000*%
%TD*%
G04 APERTURE END LIST*
D10*
%TO.P,IC1,1,ISO_14443_LB*%
%TO.N,Net-(IC1-ISO_14443_LA)*%
X156750000Y-95000000D03*
%TO.P,IC1,2,N.C._1*%
%TO.N,unconnected-(IC1-N.C._1-Pad2)*%
X156750000Y-95400000D03*
%TO.P,IC1,3,ISO_7816_IO1*%
%TO.N,unconnected-(IC1-ISO_7816_IO1-Pad3)*%
X156750000Y-95800000D03*
%TO.P,IC1,4,N.C._2*%
%TO.N,unconnected-(IC1-N.C._2-Pad4)*%
X156750000Y-96200000D03*
%TO.P,IC1,5,N.C._3*%
%TO.N,unconnected-(IC1-N.C._3-Pad5)*%
X156750000Y-96600000D03*
D11*
%TO.P,IC1,6,N.C._4*%
%TO.N,unconnected-(IC1-N.C._4-Pad6)*%
X157500000Y-97350000D03*
%TO.P,IC1,7,N.C._5*%
%TO.N,unconnected-(IC1-N.C._5-Pad7)*%
X157900000Y-97350000D03*
%TO.P,IC1,8,N.C._6*%
%TO.N,unconnected-(IC1-N.C._6-Pad8)*%
X158300000Y-97350000D03*
%TO.P,IC1,9,L2C_SDA*%
%TO.N,unconnected-(IC1-L2C_SDA-Pad9)*%
X158700000Y-97350000D03*
%TO.P,IC1,10,L2C_SCL*%
%TO.N,unconnected-(IC1-L2C_SCL-Pad10)*%
X159100000Y-97350000D03*
D10*
%TO.P,IC1,11,ENA*%
%TO.N,unconnected-(IC1-ENA-Pad11)*%
X159850000Y-96600000D03*
%TO.P,IC1,12,VIN*%
%TO.N,unconnected-(IC1-VIN-Pad12)*%
X159850000Y-96200000D03*
%TO.P,IC1,13,ISO_7816_CLK*%
%TO.N,unconnected-(IC1-ISO_7816_CLK-Pad13)*%
X159850000Y-95800000D03*
%TO.P,IC1,14,ISO_7816_RST_N*%
%TO.N,unconnected-(IC1-ISO_7816_RST_N-Pad14)*%
X159850000Y-95400000D03*
%TO.P,IC1,15,VOUT*%
%TO.N,Net-(IC1-VCC)*%
X159850000Y-95000000D03*
D11*
%TO.P,IC1,16,ISO_7816_IO2*%
%TO.N,unconnected-(IC1-ISO_7816_IO2-Pad16)*%
X159100000Y-94250000D03*
%TO.P,IC1,17,ISO_14443_LA*%
%TO.N,Net-(IC1-ISO_14443_LA)*%
X158700000Y-94250000D03*
%TO.P,IC1,18,VCC*%
%TO.N,Net-(IC1-VCC)*%
X158300000Y-94250000D03*
%TO.P,IC1,19,VSS*%
%TO.N,GND*%
X157900000Y-94250000D03*
%TO.P,IC1,20,N.C._7*%
%TO.N,unconnected-(IC1-N.C._7-Pad20)*%
X157500000Y-94250000D03*
D12*
%TO.P,IC1,21,EP*%
%TO.N,unconnected-(IC1-EP-Pad21)*%
X158300000Y-95800000D03*
%TD*%
D13*
%TO.P,C1,1*%
%TO.N,Net-(IC1-ISO_14443_LA)*%
X155700000Y-91800000D03*
%TO.P,C1,2*%
X157250000Y-91800000D03*
%TD*%
D14*
%TO.N,Net-(IC1-ISO_14443_LA)*%
X155900000Y-90350000D03*
X151500000Y-84800000D03*
%TO.N,Net-(IC1-VCC)*%
X161500000Y-93100000D03*
X158074265Y-93075735D03*
%TO.N,GND*%
X156024265Y-93425735D03*
X155200000Y-96500000D03*
%TD*%
D15*
%TO.N,Net-(IC1-ISO_14443_LA)*%
X154750000Y-90150058D02*
X154750000Y-90449877D01*
D16*
X157250000Y-91800000D02*
X158600000Y-91800000D01*
D15*
X137476415Y-88876415D02*
X123076415Y-88876415D01*
X194850000Y-52600000D02*
X196150000Y-53900000D01*
X123164718Y-52443251D02*
X123171467Y-52450000D01*
X152000000Y-85300000D02*
X151500000Y-84800000D01*
D16*
X155700000Y-91800000D02*
X154600000Y-91800000D01*
D15*
X191216657Y-86473347D02*
X191190004Y-86500000D01*
X194950000Y-54400000D02*
X194950000Y-82740004D01*
D16*
X154799000Y-92549000D02*
X155200000Y-92950000D01*
D15*
X118200000Y-55700000D02*
X122650000Y-51250000D01*
X117000000Y-55200000D02*
X117000000Y-84500000D01*
X186977377Y-87675664D02*
X123575664Y-87675664D01*
X120600000Y-83006088D02*
X120600000Y-82250000D01*
X196150000Y-83250000D02*
X194600000Y-84800000D01*
D16*
X158100000Y-90400000D02*
X155950000Y-90400000D01*
D15*
X120600000Y-56700000D02*
X121600000Y-55700000D01*
X192223585Y-88876415D02*
X197350000Y-83750000D01*
X124093912Y-86500000D02*
X121479274Y-83885362D01*
X189100000Y-85300000D02*
X152450000Y-85300000D01*
X188600000Y-86500000D02*
X124093912Y-86500000D01*
X197350000Y-53400000D02*
X194000000Y-50050000D01*
X194600000Y-84800000D02*
X191724336Y-87675664D01*
D16*
X158700000Y-94250000D02*
X158700000Y-91900000D01*
X154677357Y-90077415D02*
X154750000Y-90150058D01*
D15*
X192950000Y-83050000D02*
X190700000Y-85300000D01*
X193800000Y-82200000D02*
X192950000Y-83050000D01*
X193750000Y-54900000D02*
X193800000Y-54950000D01*
X121600000Y-55700000D02*
X123650000Y-53650000D01*
X122650000Y-51250000D02*
X122700000Y-51250000D01*
D16*
X153400000Y-92498000D02*
X153451000Y-92549000D01*
D15*
X133350000Y-52450000D02*
X193000000Y-52450000D01*
X193000000Y-52450000D02*
X194950000Y-54400000D01*
X196150000Y-54300000D02*
X196150000Y-83250000D01*
X196150000Y-53900000D02*
X196150000Y-54300000D01*
X123575664Y-87675664D02*
X121300000Y-85400000D01*
X122150000Y-50050000D02*
X117000000Y-55200000D01*
X123171467Y-52450000D02*
X133350000Y-52450000D01*
D16*
X158700000Y-91700000D02*
X158700000Y-91000000D01*
D15*
X119410607Y-56197362D02*
X123164718Y-52443251D01*
X123076415Y-88876415D02*
X118200000Y-84000000D01*
X152450000Y-85300000D02*
X152000000Y-85300000D01*
X118200000Y-84000000D02*
X118200000Y-55700000D01*
D16*
X153451000Y-92549000D02*
X154799000Y-92549000D01*
X158700000Y-91900000D02*
X158700000Y-91700000D01*
D15*
X126950000Y-51250000D02*
X193500000Y-51250000D01*
D16*
X155200000Y-92950000D02*
X155200000Y-94500000D01*
D15*
X191724336Y-87675664D02*
X186977377Y-87675664D01*
X190700000Y-85300000D02*
X189100000Y-85300000D01*
D16*
X158700000Y-91000000D02*
X158100000Y-90400000D01*
D15*
X192500000Y-53650000D02*
X193750000Y-54900000D01*
X193800000Y-54950000D02*
X193800000Y-80000000D01*
D16*
X155700000Y-95000000D02*
X156750000Y-95000000D01*
D15*
X119400000Y-56197362D02*
X119410607Y-56197362D01*
X193500000Y-51250000D02*
X194850000Y-52600000D01*
X119400000Y-83500000D02*
X119400000Y-80450000D01*
X125000000Y-53650000D02*
X192500000Y-53650000D01*
X191190004Y-86500000D02*
X188600000Y-86500000D01*
D16*
X155200000Y-94500000D02*
X155700000Y-95000000D01*
D15*
X121479274Y-83885362D02*
X120600000Y-83006088D01*
X137476415Y-88876415D02*
X192223585Y-88876415D01*
X119400000Y-80450000D02*
X119400000Y-56197362D01*
X194000000Y-50050000D02*
X122150000Y-50050000D01*
X193800000Y-80000000D02*
X193800000Y-82200000D01*
D16*
X158600000Y-91800000D02*
X158700000Y-91700000D01*
D15*
X120600000Y-82250000D02*
X120600000Y-61100000D01*
X120600000Y-61100000D02*
X120600000Y-56700000D01*
D16*
X153999938Y-91199938D02*
X153400000Y-91799877D01*
X153400000Y-91799877D02*
X153400000Y-92498000D01*
D15*
X122700000Y-51250000D02*
X126950000Y-51250000D01*
D16*
X155950000Y-90400000D02*
X155900000Y-90350000D01*
D15*
X121300000Y-85400000D02*
X119400000Y-83500000D01*
D16*
X154600000Y-91800000D02*
X153999938Y-91199938D01*
D15*
X117000000Y-84500000D02*
X122577415Y-90077415D01*
X122577415Y-90077415D02*
X154677357Y-90077415D01*
X123650000Y-53650000D02*
X125000000Y-53650000D01*
X194950000Y-82740004D02*
X191216657Y-86473347D01*
X154750000Y-90449877D02*
X153999938Y-91199938D01*
X197350000Y-83750000D02*
X197350000Y-53400000D01*
D16*
%TO.N,Net-(IC1-VCC)*%
X161500000Y-93100000D02*
X161500000Y-95000000D01*
X161500000Y-95000000D02*
X159850000Y-95000000D01*
X158300000Y-94250000D02*
X158300000Y-93301470D01*
X158300000Y-93301470D02*
X158074265Y-93075735D01*
%TO.N,GND*%
X157600000Y-93450000D02*
X156048530Y-93450000D01*
X157900000Y-93750000D02*
X157700000Y-93550000D01*
X155150000Y-96550000D02*
X155150000Y-97400000D01*
X155200000Y-96500000D02*
X155150000Y-96550000D01*
X157900000Y-94250000D02*
X157900000Y-93750000D01*
X156048530Y-93450000D02*
X156024265Y-93425735D01*
X157700000Y-93550000D02*
X157600000Y-93450000D01*
%TD*%
%TA.AperFunction,Conductor*%
%TO.N,GND*%
G36*
X155493039Y-97269685D02*
G01*
X155538794Y-97322489D01*
X155550000Y-97374000D01*
X155550000Y-97533079D01*
X155530315Y-97600118D01*
X155477511Y-97645873D01*
X155433282Y-97656865D01*
X154846758Y-97691367D01*
X154827813Y-97686994D01*
X154808382Y-97687619D01*
X154794471Y-97679298D01*
X154778678Y-97675653D01*
X154765105Y-97661732D01*
X154748421Y-97651753D01*
X154741217Y-97637233D01*
X154729901Y-97625627D01*
X154726008Y-97606577D01*
X154717369Y-97589163D01*
X154716419Y-97559644D01*
X154715914Y-97557172D01*
X154716228Y-97553943D01*
X154737744Y-97360306D01*
X154764712Y-97295850D01*
X154822246Y-97256207D01*
X154860986Y-97250000D01*
X155426000Y-97250000D01*
X155493039Y-97269685D01*
G37*
%TD.AperFunction*%
%TD*%
M02*
